<svg t="1662219172324" class="icon" viewBox="0 0 1078 1024" version="1.1" xmlns="http://www.w3.org/2000/svg" p-id="5607" width="32" height="32"><path d="M339.787668 217.133201 836.855307 217.133201 836.855307 273.263259 339.787668 273.263259 339.787668 217.133201 339.787668 217.133201 339.787668 217.133201 339.787668 217.133201ZM339.787668 437.509289 836.855307 437.509289 836.855307 493.639347 339.787668 493.639349 339.787668 437.509289 339.787668 437.509289 339.787668 437.509289 339.787668 437.509289ZM339.509882 657.885378 581.397714 657.885378 581.397714 714.014316 339.509882 714.014316 339.509882 657.885378 339.509882 657.885378 339.509882 657.885378 339.509882 657.885378ZM142.004684 203.100406 229.072739 203.100406 229.072739 287.294934 142.004684 287.294934 142.004684 203.100406 142.004684 203.100406 142.004684 203.100406 142.004684 203.100406ZM142.004684 423.476495 229.072739 423.476495 229.072739 507.671024 142.004684 507.671024 142.004684 423.476495 142.004684 423.476495 142.004684 423.476495 142.004684 423.476495ZM141.726897 643.852584 228.79947 643.852584 228.79947 728.080686 141.726897 728.080686 141.726897 643.852584 141.726897 643.852584 141.726897 643.852584 141.726897 643.852584ZM507.865546 918.712487 76.055191 918.712487C61.86097 918.712487 57.602703 907.596153 57.602703 893.838665L57.602703 83.700227C57.602703 69.977432 61.86097 58.825283 76.055191 58.825283L915.44071 58.825283C929.633803 58.825283 933.892069 69.942739 933.892069 83.700227L933.892069 552.446372 933.927074 552.446372C933.927074 552.585146 933.892069 552.721677 933.892069 552.894022 933.892069 567.992234 946.565239 580.23777 962.141615 580.23777 977.756392 580.23777 990.394557 567.992234 990.394557 552.894022 990.394557 552.757491 990.359547 552.618717 990.359547 552.446372L990.394557 552.446372 990.394557 31.443484C990.394557 15.939031 977.409719 3.379013 961.383914 3.379013L30.082626 3.379015C14.051173 3.379015 1.071985 15.939031 1.071985 31.443485L1.071985 946.090933C1.071985 961.59986 14.051172 974.154283 30.082626 974.154283L507.865547 974.154283C523.723101 974.154283 536.564524 961.737518 536.564524 946.433385 536.564524 931.095681 523.7231 918.712487 507.865546 918.712487L507.865546 918.712487 507.865546 918.712487 507.865546 918.712487ZM1031.483268 712.473277C1036.504883 707.393536 1039.654265 700.565709 1039.654265 692.982471 1039.654265 677.472423 1026.673944 664.918005 1010.643623 664.918005 1002.820425 664.918005 995.723318 667.93742 990.498444 672.844816L990.498444 672.844816 990.394557 672.947777 989.875114 673.462574 781.186183 875.275625 697.441404 794.267265C692.177009 789.157311 684.908253 785.962189 676.844539 785.962189 660.814212 785.962189 647.835028 798.522206 647.835028 814.032255 647.835028 821.787837 651.088292 828.785766 656.313166 833.861034L656.313166 833.861034 740.161832 914.939899 739.57238 915.489388 780.632867 955.187232 781.221187 954.636622 781.810639 955.187232 822.871121 915.489388 822.281674 914.939899 1031.483268 712.473277 1031.483268 712.473277 1031.483268 712.473277 1031.483268 712.473277Z" p-id="5608" fill="#8a8a8a"></path></svg>