<svg t="1662117727005" class="icon" viewBox="0 0 1024 1024" version="1.1" xmlns="http://www.w3.org/2000/svg" p-id="15000" width="32" height="32"><path d="M512 481.28L940.373333 158.72c-13.653333-6.826667-29.013333-11.946667-44.373333-11.946667h-768c-15.36 0-29.013333 3.413333-42.666667 10.24l426.666667 324.266667z" fill="#828284" p-id="15001"></path><path d="M527.36 532.48c-5.12 3.413333-10.24 5.12-15.36 5.12-5.12 0-10.24-1.706667-15.36-5.12L47.786667 192.853333c-8.533333 13.653333-13.653333 30.72-13.653334 47.786667v542.72c0 51.2 42.666667 93.866667 93.866667 93.866667h768c51.2 0 93.866667-42.666667 93.866667-93.866667V240.64c0-17.066667-5.12-32.426667-11.946667-46.08L527.36 532.48z" fill="#828284" p-id="15002"></path></svg>