<svg t="1662117675434" class="icon" viewBox="0 0 1024 1024" version="1.1" xmlns="http://www.w3.org/2000/svg" p-id="13868" width="32" height="32"><path d="M935.253333 443.733333l-152.576-264.192a136.533333 136.533333 0 0 0-118.101333-68.266666h-305.152a136.533333 136.533333 0 0 0-118.101333 68.266666L88.746667 443.733333a136.533333 136.533333 0 0 0 0 136.533334l152.576 264.192a136.533333 136.533333 0 0 0 118.101333 68.266666h305.152a136.533333 136.533333 0 0 0 118.101333-68.266666L935.253333 580.266667a136.533333 136.533333 0 0 0 0-136.533334zM512 664.576A152.576 152.576 0 1 1 664.576 512 152.576 152.576 0 0 1 512 664.576z" fill="#828284" p-id="13869"></path></svg>