<svg t="1662118314896" class="icon" viewBox="0 0 1024 1024" version="1.1" xmlns="http://www.w3.org/2000/svg" p-id="1240" width="32" height="32"><path d="M377.35 680.4H45.79V127.83h807.79V241.1a16.7 16.7 0 0 0 33.4 0v-130a16.7 16.7 0 0 0-16.7-16.7H29.09a16.7 16.7 0 0 0-16.69 16.7v586a16.7 16.7 0 0 0 16.69 16.7h348.26a16.7 16.7 0 1 0 0-33.39z" p-id="1241" fill="#7f8084"></path><path d="M289.82 273.38a60.76 60.76 0 1 0-60.76 60.76 60.83 60.83 0 0 0 60.76-60.76z m-104.83 0a44.07 44.07 0 1 1 44.07 44.06A44.12 44.12 0 0 1 185 273.38zM125.17 417.72c0 36.22 48.15 36.22 103.89 36.22s103.94 0 103.94-36.22c0-41.92-46.6-76-103.89-76s-103.94 34.08-103.94 76z m103.89-59.32c48.08 0 87.19 26.61 87.19 59.32 0 19.52-40.4 19.52-87.19 19.52s-87.19 0-87.19-19.52c0-32.72 39.13-59.32 87.19-59.32zM839.22 530.18l-34.87-34.87a8.34 8.34 0 0 0-11.8 0L686.72 601.14 632 546.4a8.34 8.34 0 0 0-11.8 0l-34.9 34.87a8.34 8.34 0 0 0 0 11.8l95.51 95.52a8.34 8.34 0 0 0 11.81 0L839.22 542a8.34 8.34 0 0 0 0-11.82z m-152.5 140.7L603 587.17l23.07-23.06 54.74 54.74a8.35 8.35 0 0 0 11.81 0L798.45 513l23.07 23.06z" p-id="1242" fill="#7f8084"></path><path d="M994.91 381.14C841 381.14 729.45 244.35 728.34 243a16.72 16.72 0 0 0-26.07 0c-1.11 1.38-112.65 138.17-266.57 138.17a16.7 16.7 0 0 0-16.7 16.67C419 849 708.24 928.29 711.16 929a16.78 16.78 0 0 0 8.29 0c2.92-0.75 292.15-80 292.15-531.2a16.7 16.7 0 0 0-16.69-16.66z m-16.83 32.93c-1 60.74-7.26 114-17.34 160.71h-56.41a698.26 698.26 0 0 0 16.24-105.84 8.37 8.37 0 0 0-6.46-8.8c-82-18.88-148.34-63.47-190.46-98.53v-74.14c39.92 40.67 132.52 119.79 254.43 126.6zM715.63 818.3c-43.63-21.48-129.9-82.12-170.11-235.88a8.47 8.47 0 0 0-0.67-2.65 658.58 658.58 0 0 1-17.57-105c80.39-20.1 145.6-63.43 188-98.35 42.41 34.92 107.64 78.24 188.05 98.35-20.86 235.56-135.24 317.92-187.7 343.53zM707 287.47v74.1c-42.11 35.07-108.51 79.69-190.47 98.57a8.37 8.37 0 0 0-6.46 8.8 691.6 691.6 0 0 0 16.38 105.84h-56.21c-10.29-46.73-16.74-100-17.71-160.71C574.42 407.25 667 328.14 707 287.47z m-232.81 304h56.52C572.84 747 661.44 809.94 707.26 832.79v59.74c-41.76-16.06-179.4-84.38-233.11-301.05zM724 892.5v-59.69c45.75-22.63 134.16-85.18 176.14-241.33h56.81C903.87 809.57 767.05 876.51 724 892.5zM331.18 516.47H127a8.35 8.35 0 0 0 0 16.7h204.18a8.35 8.35 0 0 0 0-16.7zM339.52 560.35a8.35 8.35 0 0 0-8.34-8.35H127a8.35 8.35 0 1 0 0 16.69h204.18a8.35 8.35 0 0 0 8.34-8.34zM127 587.53a8.35 8.35 0 1 0 0 16.7h102.43a8.35 8.35 0 0 0 0-16.7z" p-id="1243" fill="#7f8084"></path></svg>