<?xml version="1.0" standalone="no"?><!DOCTYPE svg PUBLIC "-//W3C//DTD SVG 1.1//EN" "http://www.w3.org/Graphics/SVG/1.1/DTD/svg11.dtd"><svg t="1685431824299" class="icon" viewBox="0 0 1024 1024" version="1.1" xmlns="http://www.w3.org/2000/svg" p-id="8636" xmlns:xlink="http://www.w3.org/1999/xlink" width="200" height="200"><path d="M376.139218 195.255009c57.719586 0 70.349231 27.057239 75.755358 46.898123 1.918699 7.028067 2.477424 66.796312 2.399653 141.052526 56.786331-26.888394 96.079242-84.699054 96.079242-151.703097 0-92.663446-75.117838-167.780261-167.781284-167.780261-92.662423 0-167.778214 75.116815-167.778214 167.780261 0 69.235874 41.944298 128.661312 101.801571 154.291039L316.615543 254.779707C316.614519 254.779707 318.419631 195.255009 376.139218 195.255009z" fill="#5BC0DE" p-id="8637"></path><path d="M199.913611 741.060953 199.913611 527.657608c0 0 5.083785-41.942251 45.74895-41.942251s54.645574 23.435759 57.186444 43.174312c2.540869 19.739577 0 175.166485 0 175.166485s5.082762 16.033162 16.519232 13.566994c11.437493-2.464121 16.521279-12.33391 16.521279-12.33391l0-449.016527c0 0 1.27197-40.707121 41.937135-40.707121s49.561789 18.503423 53.373605 32.07144c3.812839 13.56904 0 314.560232 0 314.560232s19.062148 30.841426 38.124296 3.700275l0-94.985328c0 0 5.082762-35.775808 40.666188-35.775808 35.585473 0 52.105728 17.273409 53.377698 30.840402 1.269923 13.56904 0 96.220459 0 96.220459s17.792225 33.307593 35.583426 0L598.951863 469.680149c0 0 6.353708-37.009915 48.291866-37.009915 41.937135 0 47.02092 33.30657 47.02092 33.30657l0 96.220459c0 0 19.063171 32.074509 35.583426 1.234107l0-91.288123c0 0 5.083785-33.304524 45.74895-35.771715 40.665165-2.466168 48.28982 33.307593 48.28982 33.307593l0 435.444417c0 0 3.811816 45.64355-26.687826 55.510268L357.494579 960.63381 199.913611 760.800529C199.913611 760.800529 199.913611 749.693564 199.913611 741.060953z" fill="#5BC0DE" p-id="8638"></path></svg>