<?xml version="1.0" standalone="no"?><!DOCTYPE svg PUBLIC "-//W3C//DTD SVG 1.1//EN" "http://www.w3.org/Graphics/SVG/1.1/DTD/svg11.dtd"><svg t="1674873525809" class="icon" viewBox="0 0 1024 1024" version="1.1" xmlns="http://www.w3.org/2000/svg" p-id="9787" xmlns:xlink="http://www.w3.org/1999/xlink" width="200" height="200"><path d="M266.40391 28.230972L3.813166 639.461376c-9.86299 22.963978 0.065 48.986952 22.174979 58.104943l246.888759 101.9039c22.108978 9.132991 48.035953-2.079998 57.898943-25.048975L419.51976 567.849445l466.998544 192.756812c35.769965 14.775986 75.110927 2.679997 87.857914-27.013973l45.613956-106.151897c12.746988-29.682971-5.912994-65.723936-41.687959-80.489921L511.306671 354.187654l82.05692-190.998813c9.86999-22.961978-0.06-48.979952-22.166979-58.109944L324.305853 3.176997c-22.114978-9.129991-48.035953 2.089998-57.901943 25.053975z m224.92478 106.772896c23.444977 9.679991 31.336969 43.403958 17.629983 75.323927l-75.090927 174.777829 54.496947 22.499978 422.771587 174.50583c30.096971 12.421988 44.228957 46.402955 31.552969 75.905925-12.671988 29.506971-47.345954 43.357958-77.441924 30.92197L442.469738 514.428498l-54.496947-22.488978-81.78292 190.371814c-13.707987 31.905969-43.838957 49.931951-67.291934 40.25496L105.853067 667.649348c-23.452977-9.676991-31.346969-43.397958-17.636983-75.319926l202.767802-471.97354c13.714987-31.921969 43.838957-49.949951 67.288934-40.27496l133.05587 54.922946z m165.283839 860.01716c0 16.005984-15.827985 28.977972-35.357966 28.977972H100.694072c-19.527981 0-35.361965-12.971987-35.361966-28.977972 0-16.010984 15.832985-28.981972 35.361966-28.981971h520.560491c19.529981 0 35.357965 12.971987 35.357966 28.981971z" p-id="9788"></path></svg>