<?xml version="1.0" standalone="no"?><!DOCTYPE svg PUBLIC "-//W3C//DTD SVG 1.1//EN" "http://www.w3.org/Graphics/SVG/1.1/DTD/svg11.dtd"><svg t="1706678986017" class="icon" viewBox="0 0 1024 1024" version="1.1" xmlns="http://www.w3.org/2000/svg" p-id="5168" xmlns:xlink="http://www.w3.org/1999/xlink" width="200" height="200"><path d="M512 56.888889a455.111111 455.111111 0 1 0 455.111111 455.111111 455.111111 455.111111 0 0 0-455.111111-455.111111z" fill="#3F7FF7" p-id="5169"></path><path d="M463.246222 690.858667a48.753778 48.753778 0 1 1 48.64 48.64 48.753778 48.753778 0 0 1-48.64-48.64z m24.462222-113.777778A8.135111 8.135111 0 0 1 479.573333 568.888889V292.750222a8.135111 8.135111 0 0 1 8.135111-8.192h48.64a8.135111 8.135111 0 0 1 8.192 8.192V568.888889a8.135111 8.135111 0 0 1-8.192 8.192z" fill="#FFFFFF" p-id="5170"></path></svg>