<svg t="1662218976293" class="icon" viewBox="0 0 1024 1024" version="1.1" xmlns="http://www.w3.org/2000/svg" p-id="2604" width="32" height="32"><path d="M937.537492 1000.771267H87.10775c-40.005041 0-72.912413-32.26213-72.912413-72.912414V208.413359c0-40.005041 32.26213-72.912413 72.912413-72.912414h127.758034v54.845621H87.10775c-9.678639 0-17.42155 7.742911-17.42155 17.42155v719.445495c0 9.678639 7.742911 17.42155 17.42155 17.42155h850.429742c9.678639 0 17.42155-7.742911 17.42155-17.42155V209.058601c0-9.678639-7.742911-17.42155-17.42155-17.42155h-113.562697v-54.845621h113.562697c40.005041 0 72.912413 32.26213 72.912413 72.912414V929.149338c-0.645243 39.359798-32.907372 71.621928-72.912413 71.621929z" fill="#707070" p-id="2605"></path><path d="M388.436043 136.146188h274.873346v54.84562H388.436043zM276.163831 50.974165h54.845621v225.189666h-54.845621zM718.155009 50.974165h54.845621v225.189666h-54.845621zM439.410208 772.355388l-19.357278-18.066793C247.127914 591.042218 240.675488 575.556396 238.739761 569.749212l50.974165-20.00252c-0.645243-1.935728-1.290485-3.226213-1.290486-3.226213 8.388154 12.904852 80.010082 82.591052 150.341525 149.696282L740.7385 393.597984l38.714556 38.714555-340.042848 340.042849z" fill="#707070" p-id="2606"></path></svg>