<svg xmlns="http://www.w3.org/2000/svg" viewBox="0 0 32 32" width="42" height="42" style="border-color: rgba(187,187,187,1);border-width: 0px;border-style: solid" filter="none">
    
    <g>
    <path d="M0 30.72c-0.488 2.36 0.421-0.695 1.312-3.758l1.344-5.394c0.096-0.224 0.16-0.48 0.224-0.736 0.096-0.352 0.288-0.64 0.576-0.896 0.288-0.224 0.512-0.512 0.768-0.768 4.192-4.128 8.352-8.256 12.512-12.384 0.093-0.087 0.177-0.181 0.252-0.282l0.004-0.006 1.696 1.696c-0.064 0.032-0.192 0.096-0.288 0.192l-12.96 12.96c-0.16 0.155-0.282 0.349-0.349 0.567l-0.003 0.009c-0.512 1.728-0.992 3.424-1.504 5.152-0.064 0.224-0.032 0.352 0.128 0.512 0.256 0.224 0.512 0.512 0.768 0.736 0.096 0.096 0.256 0.16 0.384 0.128 1.728-0.512 3.424-0.992 5.152-1.536 0.16-0.032 0.288-0.16 0.384-0.288 4.384-4.352 8.768-8.736 13.152-13.12 0.064-0.064 0.16-0.16 0.192-0.224 0.608 0.64 1.216 1.216 1.888 1.888-0.032 0.032-0.16 0.064-0.224 0.16-4.32 4.256-8.64 8.512-12.928 12.832-0.608 0.576-1.248 0.96-2.048 1.184-2.848 0.8-5.696 1.664-8.544 2.496-0.16 0.064-0.352 0.096-0.544 0.16h-0.256c-0.16-0.064-0.288-0.128-0.416-0.192-0.384-0.16-0.512-0.544-0.672-0.896v-0.192zM8.608 25.44c-0.096-0.544-0.16-1.024-0.224-1.504-0.032-0.256-0.128-0.32-0.352-0.384-0.692-0.126-1.232-0.248-1.764-0.389l0.164 0.037 13.6-13.6c0.704 0.704 1.472 1.44 2.176 2.176-4.48 4.512-9.024 9.056-13.6 13.664zM21.664 2.048c0.416-0.384 0.832-0.832 1.28-1.216 1.248-1.152 2.88-1.12 4.096 0.096 1.376 1.312 2.688 2.656 4.032 4 1.248 1.28 1.216 2.976-0.032 4.256l-1.12 1.12c-2.72-2.752-5.472-5.472-8.256-8.256zM18.336 5.056c0.608-0.576 1.248-1.152 1.856-1.728 2.88 2.848 5.728 5.728 8.608 8.576l-1.856 1.76-8.608-8.608z"></path>
    </g>
  </svg>