<?xml version="1.0" standalone="no"?><!DOCTYPE svg PUBLIC "-//W3C//DTD SVG 1.1//EN" "http://www.w3.org/Graphics/SVG/1.1/DTD/svg11.dtd"><svg t="1700413053123" class="icon" viewBox="0 0 1024 1024" version="1.1" xmlns="http://www.w3.org/2000/svg" p-id="4020" xmlns:xlink="http://www.w3.org/1999/xlink" width="200" height="200"><path d="M394.164581 1024s-325.332933-107.522688-224.031201-405.437336c75.649891-106.601065 96.0024-166.660167 69.121728-261.126528 0 0 32.026401-4.070502 85.326933 123.881497l53.684542 127.721593s29.338333-120.425411-10.675467-201.60504S300.850248 102.991375 511.594716 0c-48.0012 62.363159-98.690467 190.315158 13.363534 302.369159 74.651466 96.0024 74.651466 96.0024 106.677867 170.653867 0 0 37.325733-176.030001 157.367134-215.967-34.637666 72.040201-21.350934 199.684992 42.625066 322.568065s92.699917 382.319958-205.368334 436.311707c52.993325-53.761344 103.9898-126.031951 28.032701-210.974874C618.195781 744.978624 657.518364 714.257856 657.518364 714.257856s-41.012225 18.048451-62.977574 107.522689c0 0 33.255231-212.664517-93.314333-271.341184 6.604965 72.040201 25.344634 218.655066-70.657766 230.40576-15.360384-60.135903-59.9823-80.027601-59.9823-80.027601s44.0075 51.9949-7.680192 99.842497c-107.369084 93.698342 31.258381 223.339983 31.258382 223.339983z" fill="#de1f12" p-id="4021"></path></svg>