<?xml version="1.0" standalone="no"?><!DOCTYPE svg PUBLIC "-//W3C//DTD SVG 1.1//EN" "http://www.w3.org/Graphics/SVG/1.1/DTD/svg11.dtd"><svg t="1700416742204" class="icon" viewBox="0 0 1024 1024" version="1.1" xmlns="http://www.w3.org/2000/svg" p-id="8818" xmlns:xlink="http://www.w3.org/1999/xlink" width="200" height="200"><path d="M496.68 0.00001c173.439998 0 314.039997 140.599999 314.039997 314.039997s-140.599999 314.039997-314.039997 314.039997c-195.109998 0-353.289997 158.169998-353.289996 353.289996-0.93 21.67-19.26 38.49-40.93 37.56-20.37-0.88-36.68-17.19-37.56-37.56-0.02-175.169998 105.749999-333.019997 267.789998-399.589996C184.800003 491.200005 138.340004 297.890007 228.920003 150.000009 286.010002 56.790009 387.460001-0.01999 496.76 0.00001h-0.08z m0 78.479999c-130.079999-0.05-235.559998 105.359999-235.609998 235.439998-0.04 130.079999 105.369999 235.559998 235.449998 235.609998h0.17c130.079999 0 235.519998-105.449999 235.519998-235.519998S626.759999 78.480009 496.68 78.480009z m346.769997 588.809994c32.03 0 61.889999 13.41 84.059999 37.68 21.31 23.33 32.97 53.989999 32.97 86.529999 0 39.57-18.48 68.699999-30.8 87.899999-14.13 22.18-36.96 48.19-67.979999 77.4l-13.77 12.68a899.407991 899.407991 0 0 1-54.71 46.019999 42.305 42.305 0 0 1-45.149999 3.62l-5.73-3.7c-1.09-0.87-25.73-19.86-54.57-46.019999-38.05-34.42-65.579999-64.789999-81.739999-90.15-7.39-11.59-14.49-23.19-20.22-36.599999-19.91-46.35-11.18-100.039999 22.39-137.689999a113.002999 113.002999 0 0 1 84.059999-37.68c26.67 0 52.759999 9.78 73.41 27.47l2.17 1.81 2.169999-1.81a113.569999 113.569999 0 0 1 73.44-27.46z m0 62.83c-9.62 0.08-19.01 2.95-27.03 8.26l-6.16 4.57-42.389999 35.359999-42.97-35.799999a50.673 50.673 0 0 0-32.61-12.39 50.355 50.355 0 0 0-37.759999 17.32c-16.96 19.51-21.19 47.03-10.87 70.729999 3.19 7.46 7.17 14.49 15.29 27.32 12.68 19.86 36.67 46.31 71.019999 77.399999l17.83 15.73 20.07 16.81 1.519999-1.09c7.97-6.52 18.33-15.29 28.7-24.49l7.75-6.88c34.28-31.09 58.259999-57.469999 71.019999-77.469999 15.36-23.91 20.87-36.96 20.87-53.99 0.2-16.24-5.7-31.96-16.52-44.059999a50.308 50.308 0 0 0-37.679999-17.32h-0.08v-0.01z" p-id="8819"></path></svg>