<?xml version="1.0" standalone="no"?><!DOCTYPE svg PUBLIC "-//W3C//DTD SVG 1.1//EN" "http://www.w3.org/Graphics/SVG/1.1/DTD/svg11.dtd"><svg t="1674736061567" class="icon" viewBox="0 0 1024 1024" version="1.1" xmlns="http://www.w3.org/2000/svg" p-id="5761" xmlns:xlink="http://www.w3.org/1999/xlink" width="200" height="200"><path d="M148.161913 326.765158a123.329637 123.329637 0 0 1-31.937042-4.235378A122.642819 122.642819 0 0 1 29.525533 172.334108a122.654266 122.654266 0 0 1 236.952244 63.484887 122.791629 122.791629 0 0 1-118.315864 90.946163z m-0.309068-205.301377a82.612771 82.612771 0 0 0-71.383295 123.901985 82.57843 82.57843 0 0 0 143.029869-82.578429 82.040422 82.040422 0 0 0-50.137721-38.473261 83.047755 83.047755 0 0 0-21.508853-2.850295zM360.709221 175.04704a87.454838 87.454838 0 0 1-22.65355-3.033447 86.413164 86.413164 0 0 1-52.816312-40.522268 86.413164 86.413164 0 0 1-8.688249-65.934537 86.413164 86.413164 0 0 1 40.522268-52.816312 86.424611 86.424611 0 0 1 66.003219-8.688249 86.413164 86.413164 0 0 1 52.816312 40.522268 87.077088 87.077088 0 0 1-31.834019 118.819531 86.470399 86.470399 0 0 1-43.349669 11.653014z m-0.217493-133.92953a46.623502 46.623502 0 0 0-23.374709 6.272939 46.612055 46.612055 0 0 0-21.829369 28.46861 46.612055 46.612055 0 0 0 4.681811 35.600072 46.612055 46.612055 0 0 0 28.491504 21.863709 46.612055 46.612055 0 0 0 35.508496-4.670363 46.93257 46.93257 0 0 0 17.170452-64.103023 46.93257 46.93257 0 0 0-40.648185-23.431944zM567.21253 158.277231a79.579324 79.579324 0 0 1-20.604543-2.735825 78.617779 78.617779 0 0 1-48.077267-36.870685 79.224468 79.224468 0 0 1 28.983724-108.059381 79.224468 79.224468 0 0 1 108.105169 28.96083 79.224468 79.224468 0 0 1-28.96083 108.105169 78.675013 78.675013 0 0 1-39.446253 10.599892z m-0.194599-118.25863a38.839564 38.839564 0 0 0-19.459846 5.254159 38.81667 38.81667 0 0 0-18.212127 23.718118 38.81667 38.81667 0 0 0 3.903417 29.647648 38.81667 38.81667 0 0 0 23.729565 18.20068 38.828117 38.828117 0 0 0 29.60186-3.880522 38.81667 38.81667 0 0 0 18.20068-23.729566 38.81667 38.81667 0 0 0-3.903416-29.647648 38.81667 38.81667 0 0 0-23.729566-18.200679 39.308889 39.308889 0 0 0-10.11912-1.339296zM726.508541 182.602039a61.813629 61.813629 0 0 1-53.640493-30.906815 61.412985 61.412985 0 0 1-6.181363-46.93257 61.412985 61.412985 0 0 1 28.800572-37.534609 61.424432 61.424432 0 0 1 46.93257-6.181363 61.424432 61.424432 0 0 1 37.534609 28.800573 61.412985 61.412985 0 0 1 6.181363 46.93257 61.412985 61.412985 0 0 1-28.812019 37.523162 61.458773 61.458773 0 0 1-30.815239 8.299052z m-0.137363-83.562869a21.63477 21.63477 0 0 0-10.840279 2.918977 21.74924 21.74924 0 0 0-8.012878 29.762118 21.74924 21.74924 0 0 0 29.762117 8.012878 21.611876 21.611876 0 0 0 10.142014-13.209802 21.611876 21.611876 0 0 0-2.174924-16.506528 21.623323 21.623323 0 0 0-13.209801-10.142014 21.886603 21.886603 0 0 0-5.666249-0.858523z" p-id="5762"></path><path d="M786.834064 1023.977106c-42.216419 0-80.930066-12.362726-112.077267-35.806117-22.458952-16.907172-40.510821-39.217314-53.640493-66.312288a181.903774 181.903774 0 0 1-19.906278-46.840994c-4.41853-15.682347-6.788052-32.749776-9.088893-49.221964-2.541227-18.315149-4.933643-35.554284-9.729923-48.981577-6.295833-17.616884-18.830263-33.894473-37.259882-48.432123a175.527813 175.527813 0 0 0-50.126275-16.632445 171.246646 171.246646 0 0 0-22.149883-2.289394 25.732785 25.732785 0 0 1-3.434091-0.343409c-138.107673-20.135217-209.21624-103.801109-212.169558-107.361116-25.286353-30.345913-45.295654-68.876409-56.353425-108.460025-12.671794-45.295654-12.832052-89.103202-0.526561-126.683599 15.476301-47.253085 52.48435-88.874262 107.029154-120.376319 47.459131-27.404042 106.949025-46.829547 172.047934-56.181721 64.778394-9.306385 130.999106-7.738151 186.448221 4.407083 62.054015 13.598998 107.704525 39.503488 132.017886 74.851726 16.872831 24.553747 36.802003 73.85584 37.488821 131.972098 0.515114 44.036487-9.867287 89.023073-30.048292 130.243606-4.212484 16.025756-10.370953 53.800751 10.038991 93.121087 26.499732 51.053479 77.702021 64.835629 87.695225 67.079235a20.032195 20.032195 0 1 1-8.779825 39.091397 179.076373 179.076373 0 0 1-47.42479-18.784475c-29.441603-16.735468-52.003577-39.927026-67.05634-68.933644-27.747451-53.468789-18.051869-104.602397-12.591665-124.10803a20.009301 20.009301 0 0 1 1.362189-3.525667c17.948846-36.046503 27.197997-75.36684 26.740118-113.72563-0.538008-45.971025-15.682347-88.244679-30.448936-109.753533-18.177786-26.465391-56.376319-47.218744-107.601502-58.379538-50.870327-11.149347-112.020032-12.522983-172.173851-3.880522-100.298337 14.400286-217.801467 61.20694-246.670721 149.360043-9.832946 30.013951-9.47809 65.785727 1.041674 103.434806 9.569666 34.260776 26.8088 67.537113 48.546593 93.60186 0.125917 0.148811 16.300483 19.150778 47.447684 40.064389a339.127884 339.127884 0 0 0 139.653013 53.285637 211.48274 211.48274 0 0 1 26.534073 2.770167 215.798247 215.798247 0 0 1 63.50778 21.360043 20.12377 20.12377 0 0 1 3.010553 1.911643c25.389376 19.574316 42.868896 42.353783 51.946342 67.7775 6.181363 17.307816 8.974423 37.45448 11.687355 56.948668 2.106242 15.167233 4.281166 30.906815 8.012878 43.899123a143.945627 143.945627 0 0 0 16.094437 37.774996q0.515114 0.858523 0.950099 1.751386c10.359506 21.646217 24.507959 39.308889 42.033268 52.507244 24.507959 18.452513 55.449115 28.067966 89.526739 27.747451a176.477911 176.477911 0 0 0 91.953497-26.785906c26.900376-17.078877 48.317653-42.090503 61.950992-72.321946a188.245394 188.245394 0 0 0 14.938294-98.936147 20.032195 20.032195 0 1 1 39.801109-4.578788 228.309784 228.309784 0 0 1-18.223574 119.998569c-16.861384 37.385799-43.49848 68.395636-77.003756 89.67555-32.990163 20.947952-73.146128 32.669648-113.073153 33.024504z" p-id="5763"></path></svg>