<svg xmlns="http://www.w3.org/2000/svg" viewBox="0 0 32 32" width="42" height="42" style="border-color: rgba(187,187,187,1);border-width: 0px;border-style: solid" filter="none">
    
    <g>
    <path d="M16 29.408c-2.4 0-4.8-0.032-7.2 0-3.36 0.032-5.248-2.624-5.152-5.152 0.128-2.304 0.064-4.64 0.032-6.944 0-0.512 0.096-0.832 0.608-1.088 3.744-1.952 7.456-3.968 11.168-5.952 0.416-0.224 0.736-0.224 1.12 0 3.712 2.016 7.424 4 11.168 5.952 0.448 0.256 0.608 0.512 0.576 1.024v7.2c0 2.848-2.048 4.928-4.896 4.96h-7.424zM29.952 14.080c-0.416-0.16-0.864-0.288-1.248-0.512-4-2.080-7.968-4.192-11.904-6.368-0.608-0.32-1.056-0.288-1.6 0.032-4.032 2.176-8.032 4.288-12.064 6.432-1.376 0.736-2.752 0.16-3.072-1.28-0.224-0.864 0.224-1.728 1.216-2.24 3.712-1.984 7.392-3.968 11.104-5.92 0.96-0.512 1.92-1.088 2.944-1.504 0.416-0.16 1.056-0.16 1.44 0.032 4.736 2.464 9.44 4.992 14.112 7.488 0.928 0.48 1.312 1.376 1.056 2.272-0.288 0.928-0.992 1.472-1.984 1.568z"></path>
    </g>
  </svg>