<?xml version="1.0" standalone="no"?><!DOCTYPE svg PUBLIC "-//W3C//DTD SVG 1.1//EN" "http://www.w3.org/Graphics/SVG/1.1/DTD/svg11.dtd"><svg t="1680757188587" class="icon" viewBox="0 0 1024 1024" version="1.1" xmlns="http://www.w3.org/2000/svg" p-id="6586" xmlns:xlink="http://www.w3.org/1999/xlink" width="200" height="200"><path d="M430.1 927.7h-278v-571l89 182.7z" fill="#F7BC3A" p-id="6587"></path><path d="M524 245.3v683H227.8v-5.5h-0.1V555.6l0.1-0.1 92.7-97.1z" fill="#F7BC3A" p-id="6588"></path><path d="M618.1 928.3h278.1v-571h-0.1L807.2 540z" fill="#E89E01" p-id="6589"></path><path d="M522.4 245.2v683h296.2V555.5l-92.7-97.2z" fill="#E89E01" p-id="6590"></path><path d="M522.8 452l-62.7 69.8 62.3 58.1 65.7-61.5z" fill="#900058" p-id="6591"></path><path d="M916 782.1H140.7c-6.6 0-12-5.4-12-12v-4.6c0-6.6 5.4-12 12-12H916c6.6 0 12 5.4 12 12v4.6c0 6.6-5.4 12-12 12z" fill="#E8E8E8" p-id="6592"></path><path d="M192 767.8m-14.3 0a14.3 14.3 0 1 0 28.6 0 14.3 14.3 0 1 0-28.6 0Z" fill="#BFBFBF" p-id="6593"></path><path d="M320.1 768m-14.3 0a14.3 14.3 0 1 0 28.6 0 14.3 14.3 0 1 0-28.6 0Z" fill="#BFBFBF" p-id="6594"></path><path d="M448.1 768m-14.3 0a14.3 14.3 0 1 0 28.6 0 14.3 14.3 0 1 0-28.6 0Z" fill="#BFBFBF" p-id="6595"></path><path d="M576.1 768m-14.3 0a14.3 14.3 0 1 0 28.6 0 14.3 14.3 0 1 0-28.6 0Z" fill="#BFBFBF" p-id="6596"></path><path d="M707.5 768m-14.3 0a14.3 14.3 0 1 0 28.6 0 14.3 14.3 0 1 0-28.6 0Z" fill="#BFBFBF" p-id="6597"></path><path d="M834.1 767.8m-14.3 0a14.3 14.3 0 1 0 28.6 0 14.3 14.3 0 1 0-28.6 0Z" fill="#BFBFBF" p-id="6598"></path></svg>