<svg xmlns="http://www.w3.org/2000/svg" viewBox="0 0 32 32" width="50" height="50" style="border-color: rgba(187,187,187,1);border-width: 0px;border-style: solid" filter="none">
    
    <g>
    <path d="M16.672 22.432c-0.48-0.832-1.184-1.152-2.112-1.312-3.328-0.544-6.656-0.48-9.984-0.128-1.344 0.128-2.496 0.576-3.104 1.888-0.192 0.416-0.48 0.736-0.736 1.12-1.12 1.6-1.056 1.76 0.928 2.144 2.464 0.544 4.96 0.544 7.328 0.672 2.112-0.064 4.064-0.128 5.984-0.352 1.056-0.128 2.112-0.288 3.104-0.704 0.448-0.192 0.64-0.416 0.256-0.928-0.608-0.768-1.184-1.568-1.664-2.4zM14.848 22.432c-1.088 0.32-2.24 0.416-3.36 0.48-2.368 0.16-4.736 0.128-7.072-0.288-0.296-0.033-0.567-0.101-0.822-0.2l0.022 0.008c-0.224-0.096-0.576-0.128-0.576-0.416 0-0.32 0.32-0.352 0.576-0.448 1.536-0.48 3.168-0.416 4.736-0.576 2.048 0 4.064 0.064 6.016 0.48 0.16 0.032 0.32 0.064 0.48 0.128 0.224 0.064 0.576 0.096 0.576 0.416 0 0.288-0.352 0.352-0.576 0.416zM13.536 15.744c0.448 0.128 0.704-0.032 0.928-0.416 0.416-0.768 0.896-1.504 1.344-2.24 0.992-1.632 0.992-2.080-0.192-3.584 0.224-0.032 0.448-0.064 0.64-0.128 0.16-0.032 0.352-0.096 0.352-0.288 0.032-0.16-0.16-0.224-0.256-0.288-1.344-0.8-2.656-1.6-4-2.432-0.352-0.224-0.512-0.128-0.48 0.288 0.032 0.224 0.096 0.416 0.16 0.704-1.6-0.416-2.272-0.16-3.104 1.216-0.48 0.8-0.96 1.632-1.472 2.4-0.288 0.416-0.32 0.704 0.032 1.088 1.664 1.824 3.68 3.040 6.048 3.68zM29.696 19.808c0.032-0.448-0.192-0.832-0.768-1.088 14.952 6.614 11.539 4.914 8.123 3.22l-18.523-8.308c-1.344-0.64-1.344-0.608-2.144 0.672-0.256 0.448-0.256 0.64 0.224 0.96 3.52 2.016 7.008 4.096 10.496 6.176 1.248 0.736 2.496 0.032 2.592-1.632zM7.36 15.2c1.12 0.704 2.272 1.408 3.424 2.080 1.056 0.608 1.952 0.416 2.848-0.672-2.848-0.64-5.12-2.048-6.976-4.224-0.544 1.152-0.32 2.144 0.704 2.816zM30.432 19.488c0.128 0.64 0.192 1.248-0.128 1.824-0.288 0.544-0.8 0.896-1.472 1.088 0.704 0.48 1.312 0.992 2.112 0.512 0.704-0.448 1.088-1.088 1.056-1.888-0.032-0.96-0.768-1.248-1.568-1.536zM16.288 6.752c-1.248-0.544-2.208-2.112-3.872-1.376 0 0.096-0.032 0.16-0.064 0.256 1.568 0.928 3.104 1.888 4.704 2.848 0.256-0.896-0.096-1.44-0.768-1.728z" ></path>
    </g>
  </svg>