<svg xmlns="http://www.w3.org/2000/svg" viewBox="0 0 32 32" width="21" height="21" style="border-color: rgba(187,187,187,1);border-width: 0px;border-style: solid" filter="none">
    
    <g>
    <path d="M21.696 10.368c-0.032-1.888-1.344-3.136-3.2-3.136h-5.12c-1.792 0.032-3.104 1.344-3.104 3.136v6.4c0 0.704 0.48 1.216 1.12 1.248 0.736 0 1.248-0.48 1.248-1.248v-5.6c0-0.16 0.096-0.32 0.16-0.48 0.064 0.16 0.16 0.32 0.16 0.48v17.568c0.032 0.544 0.384 1.024 0.896 1.184 0.992 0.32 1.856-0.32 1.888-1.344v-8.736c0-0.192-0.096-0.512 0.256-0.512 0.32 0 0.224 0.32 0.224 0.512 0 2.88 0 5.728 0.032 8.608 0 0.32 0.064 0.672 0.224 0.928 0.288 0.544 0.96 0.736 1.6 0.544 0.576-0.16 0.96-0.64 0.96-1.312v-17.408c0-0.16 0.096-0.32 0.128-0.48 0.064 0.16 0.16 0.32 0.16 0.48v5.472c0 0.416 0.096 0.8 0.48 1.088 0.384 0.256 0.8 0.32 1.216 0.096 0.512-0.224 0.672-0.672 0.672-1.184 0.015-0.938 0.024-2.044 0.024-3.152s-0.009-2.214-0.026-3.319l0.002 0.167zM15.968 6.912c1.408 0 2.464-1.056 2.464-2.464 0-1.344-1.088-2.432-2.432-2.432s-2.496 1.12-2.464 2.464c0 1.344 1.088 2.4 2.432 2.432z" fill="rgba(55.08,126.99,126.99,1)"></path>
    </g>
  </svg>