<svg xmlns="http://www.w3.org/2000/svg" xmlns:xlink="http://www.w3.org/1999/xlink" viewBox="0 0 32 32" width="46" height="46" style="" filter="none">
    
    <g>
    <path d="M25.333 28h-18.667c-0.736 0-1.333-0.597-1.333-1.333v0-12h-4l13.769-12.517c0.236-0.215 0.551-0.347 0.897-0.347s0.661 0.132 0.898 0.348l-0.001-0.001 13.769 12.517h-4v12c0 0.736-0.597 1.333-1.333 1.333v0zM8 25.333h16v-13.124l-8-7.272-8 7.272v13.124zM16 20c-1.841 0-3.333-1.492-3.333-3.333s1.492-3.333 3.333-3.333v0c1.841 0 3.333 1.492 3.333 3.333s-1.492 3.333-3.333 3.333v0z" ></path>
    </g>
  </svg>