<?xml version="1.0" standalone="no"?><!DOCTYPE svg PUBLIC "-//W3C//DTD SVG 1.1//EN" "http://www.w3.org/Graphics/SVG/1.1/DTD/svg11.dtd"><svg t="1682390393590" class="icon" viewBox="0 0 1064 1024" version="1.1" xmlns="http://www.w3.org/2000/svg" p-id="3954" xmlns:xlink="http://www.w3.org/1999/xlink" width="207.8125" height="200"><path d="M424.96 64.38912a215.04 215.04 0 0 1 215.04 0l226.34496 130.6624a215.04 215.04 0 0 1 107.52 186.24512v261.40672c0 76.8-40.96 147.78368-107.52 186.20416l-226.34496 130.6624a215.04 215.04 0 0 1-215.04 0l-226.34496-130.6624a215.04 215.04 0 0 1-107.52-186.20416V381.29664c0-76.8 40.96-147.78368 107.52-186.20416l226.34496-130.6624z m163.84 88.6784a112.64 112.64 0 0 0-112.64 0l-226.34496 130.6624A112.64 112.64 0 0 0 193.49504 381.3376v261.40672c0 40.22272 21.46304 77.4144 56.32 97.52576l226.34496 130.6624c34.816 20.15232 77.824 20.15232 112.64 0l226.34496-130.6624a112.64 112.64 0 0 0 56.32-97.52576V381.29664a112.64 112.64 0 0 0-56.32-97.52576l-226.34496-130.6624z" p-id="3955"></path><path d="M305.5616 340.25472a51.2 51.2 0 0 1 70.98368-14.21312L532.48 429.99808l155.89376-103.95648a51.2 51.2 0 0 1 56.81152 85.1968L583.68 518.9632V696.32a51.2 51.2 0 0 1-102.4 0v-177.39776L319.77472 411.2384a51.2 51.2 0 0 1-14.21312-70.98368z" p-id="3956"></path></svg>