<?xml version="1.0" standalone="no"?><!DOCTYPE svg PUBLIC "-//W3C//DTD SVG 1.1//EN" "http://www.w3.org/Graphics/SVG/1.1/DTD/svg11.dtd"><svg t="1706440381671" class="icon" viewBox="0 0 1024 1024" version="1.1" xmlns="http://www.w3.org/2000/svg" p-id="4318" xmlns:xlink="http://www.w3.org/1999/xlink" width="200" height="200"><path d="M853.3 85.3A42.7 42.7 0 0 1 896 128v213.3a42.7 42.7 0 0 1-42.7 42.7H640v554.7a42.7 42.7 0 0 1-42.7 42.7H426.6a42.7 42.7 0 0 1-42.7-42.7V384H149.3a42.7 42.7 0 0 1-42.7-42.7V239.7a42.7 42.7 0 0 1 23.6-38.1L362.7 85.3h490.6zM640 170.6H382.8L192 266.1v32.6h277.3V896h85.3V298.7h85.3v-128z m170.7 0h-85.3v128h85.3V170.7z" p-id="4319"></path></svg>