<svg xmlns="http://www.w3.org/2000/svg" xmlns:xlink="http://www.w3.org/1999/xlink" viewBox="0 0 32 32" width="46" height="46" style="" filter="none">
    
    <g>
    <path d="M16 2.667c6.627 0 12 5.373 12 12v0 10c0 0.001 0 0.001 0 0.002 0 2.577-2.089 4.667-4.667 4.667-1.594 0-3.001-0.799-3.843-2.019l-0.010-0.016c-0.7 1.222-1.996 2.033-3.482 2.033s-2.782-0.81-3.472-2.013l-0.010-0.020c-0.852 1.232-2.258 2.029-3.85 2.029-2.486 0-4.518-1.944-4.659-4.394l-0.001-0.012-0.007-0.259v-9.999c0-6.627 5.373-12 12-12v0zM16 5.333c-0 0-0 0-0 0-5.042 0-9.15 3.998-9.327 8.997l-0 0.016-0.005 0.32v9.928l0.003 0.184c0.062 1.054 0.933 1.885 1.997 1.885 0.613 0 1.161-0.275 1.528-0.709l0.002-0.003 0.117-0.155c0.487-0.707 1.291-1.164 2.203-1.164 0.99 0 1.854 0.539 2.314 1.34l0.007 0.013c0.233 0.408 0.665 0.679 1.161 0.679 0.494 0 0.926-0.269 1.155-0.669l0.003-0.006c0.466-0.816 1.332-1.358 2.323-1.358 0.834 0 1.579 0.383 2.067 0.982l0.004 0.005 0.129 0.173c0.365 0.531 0.969 0.874 1.653 0.874 1.037 0 1.89-0.79 1.99-1.801l0.001-0.008 0.008-0.192v-10c0-5.155-4.179-9.333-9.333-9.333v0zM16 16c1.473 0 2.667 1.493 2.667 3.333s-1.193 3.333-2.667 3.333-2.667-1.493-2.667-3.333 1.193-3.333 2.667-3.333zM12.667 10.667c1.105 0 2 0.895 2 2s-0.895 2-2 2v0c-1.105 0-2-0.895-2-2s0.895-2 2-2v0zM19.333 10.667c1.105 0 2 0.895 2 2s-0.895 2-2 2v0c-1.105 0-2-0.895-2-2s0.895-2 2-2v0z"></path>
    </g>
  </svg>