<svg xmlns="http://www.w3.org/2000/svg" xmlns:xlink="http://www.w3.org/1999/xlink" viewBox="0 0 32 32" width="42" height="42" style="" filter="none">
    
    <g>
    <path d="M26.667 29.333h-2.667v-2.667c0-2.209-1.791-4-4-4v0h-8c-2.209 0-4 1.791-4 4v0 2.667h-2.667v-2.667c0-3.682 2.985-6.667 6.667-6.667v0h8c3.682 0 6.667 2.985 6.667 6.667v0 2.667zM16 17.333c-4.418 0-8-3.582-8-8s3.582-8 8-8v0c4.418 0 8 3.582 8 8s-3.582 8-8 8v0zM16 14.667c2.946 0 5.333-2.388 5.333-5.333s-2.388-5.333-5.333-5.333v0c-2.946 0-5.333 2.388-5.333 5.333s2.388 5.333 5.333 5.333v0z" ></path>
    </g>
  </svg>