<svg xmlns="http://www.w3.org/2000/svg" xmlns:xlink="http://www.w3.org/1999/xlink" viewBox="0 0 32 32" width="46" height="46" style="" filter="none">
    
    <g>
    <path d="M26.667 2.667c0.736 0 1.333 0.597 1.333 1.333v0 6.667c0 0.736-0.597 1.333-1.333 1.333v0h-6.667v17.333c0 0.736-0.597 1.333-1.333 1.333v0h-5.333c-0.736 0-1.333-0.597-1.333-1.333v0-17.333h-7.333c-0.736 0-1.333-0.597-1.333-1.333v0-3.176c0-0.519 0.297-0.968 0.73-1.188l0.008-0.003 7.263-3.632h15.333zM20 5.333h-8.037l-5.963 2.981v1.019h8.667v18.667h2.667v-18.667h2.667v-4zM25.333 5.333h-2.667v4h2.667v-4z" ></path>
    </g>
  </svg>