<?xml version="1.0" encoding="UTF-8"?>
<svg width="36px" height="36px" viewBox="0 0 36 36" version="1.1" xmlns="http://www.w3.org/2000/svg" xmlns:xlink="http://www.w3.org/1999/xlink">
    <title>metamask logo</title>
    <g id="页面改版" stroke="none" stroke-width="1" fill="none" fill-rule="evenodd">
        <g id="画板" transform="translate(-56.000000, -38.000000)">
            <g id="metamask-logo" transform="translate(56.000000, 38.000000)">
                <rect id="矩形" fill="#FFFFFF" x="0" y="0" width="36" height="36" rx="18"></rect>
                <g id="MetaMask" transform="translate(6.000000, 6.000000)">
                    <rect id="矩形" fill="#D8D8D8" opacity="0" x="0" y="0" width="24" height="24"></rect>
                    <g transform="translate(0.960000, 1.920000)" fill-rule="nonzero" id="路径">
                        <polygon fill="#E17726" points="13.9658982 2.71111832 12.3622599 6.6005231 20.9879638 2.18756588e-06"></polygon>
                        <polygon fill="#E27625" points="9.64074484 6.66197183 8.11281018 2.71048392 1.09137635 2.18756588e-06"></polygon>
                        <polygon fill="#E27625" points="15.5872027 18.9292074 20.5015725 20.3282893 21.9083821 15.3828589 17.8822572 15.3034966"></polygon>
                        <polygon fill="#E27625" points="0.179162655 15.3828786 1.57777202 20.3283089 6.48394802 18.9292271 4.19772128 15.3035115"></polygon>
                        <polygon fill="#E27625" points="6.21962003 9.17852584 4.85444545 11.3091495 9.7170868 11.5382773 9.55495657 6.12628286"></polygon>
                        <polygon fill="#E27625" points="15.8597309 9.17852584 12.4726533 6.06354128 12.3622534 11.5376189 17.22552 11.308491"></polygon>
                        <polygon fill="#E27625" points="6.48393293 18.9292074 9.42751346 17.4597231 6.89398663 15.4180612"></polygon>
                        <polygon fill="#E27625" points="12.6524628 17.4597318 15.5872027 18.9292161 15.1859789 15.4180634"></polygon>
                        <polygon fill="#D5BFB2" points="15.5872027 18.9292074 12.6524628 17.4597231 12.8915584 19.4309825 12.8656933 20.267488"></polygon>
                        <polygon fill="#D5BFB2" points="6.48393293 18.9292074 9.21365678 20.2668471 9.19662365 19.4309825 9.42751685 17.4597231"></polygon>
                        <polygon fill="#233447" points="9.26538517 14.1156216 6.82587075 13.3770403 8.54874102 12.5578165"></polygon>
                        <polygon fill="#233447" points="12.8145911 14.1156216 13.5306143 12.5578143 15.2635779 13.3770381"></polygon>
                        <polygon fill="#CC6228" points="6.48393293 18.9292074 6.91039136 15.3034918 4.19770187 15.3828541"></polygon>
                        <polygon fill="#CC6228" points="15.1689553 15.3035137 15.5872135 18.9298636 17.8822593 15.3828786"></polygon>
                        <polygon fill="#CC6228" points="17.2255416 11.3085151 12.3616281 11.537002 12.8145825 14.1162735 13.5312353 12.5578274 15.2629375 13.3764124"></polygon>
                        <polygon fill="#CC6228" points="6.82524544 13.3763993 8.54874533 12.5578143 9.26476848 14.1156216 9.7177229 11.5376189 4.85445623 11.308491"></polygon>
                        <polygon fill="#E27525" points="4.85443467 11.3085151 6.89336347 15.4174421 6.82523099 13.3764212"></polygon>
                        <polygon fill="#E27525" points="15.2629461 13.3763993 15.1859817 15.4180612 17.2255401 11.3084998"></polygon>
                        <polygon fill="#E27525" points="9.7177229 11.5369845 9.26476848 14.116256 9.83695479 17.1601884 9.96501868 13.1472736"></polygon>
                        <polygon fill="#E27525" points="12.3622749 11.5369845 12.1231794 13.1389521 12.2430422 17.1602015 12.8139671 14.1156347"></polygon>
                        <polygon fill="#F5841F" points="12.8145911 14.1156216 12.2430344 17.1601884 12.6524607 17.4597165 15.1866128 15.4180546 15.2635773 13.3763927"></polygon>
                        <polygon fill="#F5841F" points="6.82524544 13.3763993 6.89337792 15.4180612 9.42690476 17.4597231 9.83696061 17.1608337 9.2647743 14.1156325"></polygon>
                        <polygon fill="#C0AC9D" points="12.8656942 20.2674946 12.8915593 19.4309891 12.6688663 19.2377032 9.41049506 19.2377032 9.19726563 19.4309891 9.21429876 20.2674946 6.48394959 18.9298549 7.43969794 19.7388387 9.37579743 21.12 12.6953629 21.12 14.6402944 19.7388387 15.5878404 18.9292139"></polygon>
                        <polygon fill="#161616" points="12.6524628 17.4597318 12.242407 17.1602037 9.83696126 17.1602037 9.4269054 17.4597318 9.19664182 19.4309913 9.40987126 19.2370655 12.6695146 19.2370655 12.8915759 19.4303514"></polygon>
                        <polygon fill="#763E1A" points="12.6518375 6.38036646 15.8603778 9.17916024 20.3911941 10.542401 21.3879479 9.33724469 20.9539188 9.01083578 21.6447074 8.36057524 21.1160493 7.93816281 21.8068379 7.39222729 21.3551449 7.03125703 22.08 3.38762528 20.9879876 0.000638769263"></polygon>
                        <polygon fill="#763E1A" points="0 3.38825749 0.733687136 7.03188923 0.264330143 7.39222073 0.96458034 7.93815625 0.434660805 8.36056868 1.12544939 9.01146799 0.69078858 9.3378769 1.68943548 10.5430332 6.2196265 9.17979244 9.4275415 6.3803424 1.09140007 0"></polygon>
                        <polygon fill="#F5841F" points="17.2249163 11.3085151 15.1866193 15.4187109 17.8822744 15.3828698 21.9090246 15.3828698 20.3905537 10.5423988 15.8603627 9.17915805"></polygon>
                        <polygon fill="#F5841F" points="1.68943333 10.5424076 0.179794436 15.3828786 4.1983509 15.3828786 6.89338072 15.4180796 4.85445192 11.3091525 6.2196265 9.17916767"></polygon>
                        <polygon fill="#F5841F" points="12.3622749 11.5369845 12.6524693 6.38034459 13.9659133 2.71048392 8.11409315 2.71048392 9.42753718 6.38034459 9.71773152 11.5369845 9.82876234 13.1562339 9.83696348 17.1602015 12.2424092 17.1602015 12.2512412 13.1562339"></polygon>
                    </g>
                </g>
            </g>
        </g>
    </g>
</svg>