<?xml version="1.0" standalone="no"?><!DOCTYPE svg PUBLIC "-//W3C//DTD SVG 1.1//EN" "http://www.w3.org/Graphics/SVG/1.1/DTD/svg11.dtd"><svg t="1706577476549" class="icon" viewBox="0 0 1024 1024" version="1.1" xmlns="http://www.w3.org/2000/svg" p-id="14206" xmlns:xlink="http://www.w3.org/1999/xlink" width="200" height="200"><path d="M841.386667 502.570667a42.666667 42.666667 0 0 1-54.613334 65.578666 426.666667 426.666667 0 0 0-546.133333 0 42.666667 42.666667 0 1 1-54.613333-65.578666 512 512 0 0 1 655.36 0z m150.229333-150.698667a42.666667 42.666667 0 0 1-56.405333 64 640 640 0 0 0-846.421334 0 42.666667 42.666667 0 1 1-56.405333-64c274.090667-241.621333 685.141333-241.621333 959.232 0z m-652.373333 300.586667a298.666667 298.666667 0 0 1 345.941333 0 42.666667 42.666667 0 0 1-49.408 69.546666 213.333333 213.333333 0 0 0-247.125333 0 42.666667 42.666667 0 1 1-49.408-69.546666zM529.92 896a42.666667 42.666667 0 1 0 0-85.333333 42.666667 42.666667 0 0 0 0 85.333333z" p-id="14207"></path></svg>