<?xml version="1.0" standalone="no"?><!DOCTYPE svg PUBLIC "-//W3C//DTD SVG 1.1//EN" "http://www.w3.org/Graphics/SVG/1.1/DTD/svg11.dtd"><svg t="1706577406871" class="icon" viewBox="0 0 1024 1024" version="1.1" xmlns="http://www.w3.org/2000/svg" p-id="10595" xmlns:xlink="http://www.w3.org/1999/xlink" width="200" height="200"><path d="M565.333 828.373a53.333 53.333 0 1 1-106.666 0 53.333 53.333 0 0 1 106.666 0z m-357.738-486.4a32 32 0 0 1-14.848 42.731c-42.155 20.416-79.51 61.056-92.331 78.421a32 32 0 0 1-51.499-37.973c16.107-21.867 60.907-71.403 115.926-98.048a32 32 0 0 1 42.752 14.848z m124.949 154.39a32 32 0 0 1-14.848 42.752c-42.155 20.416-79.51 61.077-92.33 78.442a32 32 0 0 1-51.5-37.973c16.107-21.867 60.907-71.424 115.926-98.07a32 32 0 0 1 42.752 14.849zM470.4 647.083a32 32 0 0 1-24.661 37.93c-19.584 4.16-40.256 15.574-58.603 29.547-18.304 13.93-31.659 28.373-36.8 35.35a32 32 0 1 1-51.52-37.974c9.323-12.65 27.2-31.296 49.536-48.299 22.293-16.96 51.67-34.346 84.139-41.237a32 32 0 0 1 37.93 24.683z m454.741-182.016c-173.525-200.512-414.357-208.555-510.634-188.16a32 32 0 0 1-13.27-62.614c111.979-23.722 379.307-14.122 572.288 208.896a32 32 0 1 1-48.384 41.899z m-413.909-20.928a32 32 0 0 1 32-32c67.605 0 205.93 36.693 306.475 166.869a32 32 0 0 1-50.646 39.104c-86.89-112.49-205.397-141.973-255.829-141.973a32 32 0 0 1-32-32zM177.749 187.307a32 32 0 0 1 45.227 1.493l618.667 661.333a32 32 0 1 1-46.72 43.734L176.256 232.533a32 32 0 0 1 1.493-45.226z" p-id="10596"></path></svg>