<?xml version="1.0" standalone="no"?><!DOCTYPE svg PUBLIC "-//W3C//DTD SVG 1.1//EN" "http://www.w3.org/Graphics/SVG/1.1/DTD/svg11.dtd"><svg t="1682579768534" class="icon" viewBox="0 0 1024 1024" version="1.1" xmlns="http://www.w3.org/2000/svg" p-id="2740" xmlns:xlink="http://www.w3.org/1999/xlink" width="200" height="200"><path d="M512 512m-512 0a512 512 0 1 0 1024 0 512 512 0 1 0-1024 0Z" fill="#1F1F1F" p-id="2741"></path><path d="M502.66 215.44a129.34 129.34 0 0 0-188 55h53.58a83.59 83.59 0 0 1 128.37 0c0.24 0.27 0.48 0.56 0.7 0.85l1.48-0.85 38.42-22.21a130.7 130.7 0 0 0-34.55-32.79z" fill="#FFFFFF" p-id="2742"></path><path d="M659.5 180.89a48.52 48.52 0 0 0-66.3-17.76l-90.54 52.31-48.27 27.89-46.94 27.12h91.38l38.42-22.21 78.81-45.54a2.72 2.72 0 0 1 1.38-0.38 3 3 0 0 1 0.75 0.1 2.7 2.7 0 0 1 1.71 1.32l38.49 66.71h52.77z" fill="#FFFFFF" p-id="2743"></path><path d="M502.66 215.44l-48.27 27.89a83.85 83.85 0 0 1 42.25 27.12h2.19l38.42-22.21a130.7 130.7 0 0 0-34.59-32.8z" fill="#FFFFFF" p-id="2744"></path><path d="M753.22 867.41H309.56A132.56 132.56 0 0 1 177 734.84V403a132.56 132.56 0 0 1 132.56-132.56h443.66a68.46 68.46 0 0 1 68.46 68.46v460a68.46 68.46 0 0 1-68.46 68.51zM222.77 403.06v331.73a86.85 86.85 0 0 0 86.85 86.85h443.54a22.75 22.75 0 0 0 22.75-22.75V339a22.75 22.75 0 0 0-22.75-22.75H309.62a86.85 86.85 0 0 0-86.85 86.81z" fill="#EFCF8F" p-id="2745"></path><path d="M812.39 673.61H647.76A68.57 68.57 0 0 1 579.19 605v-71.22a68.57 68.57 0 0 1 68.57-68.57h164.63A34.61 34.61 0 0 1 847 499.82V639a34.61 34.61 0 0 1-34.61 34.61zM625 533.84V605a22.86 22.86 0 0 0 22.86 22.86h153.37V511H647.82A22.86 22.86 0 0 0 625 533.84z" fill="#FFFFFF" p-id="2746"></path><path d="M309.62 316.21a86.85 86.85 0 0 0-86.85 86.85v332c0 35.92 22.12 66.81 53.56 80l1.27-388a59.52 59.52 0 0 1 59.52-59.32h438.79V339a22.75 22.75 0 0 0-22.75-22.75z" fill="#020202" p-id="2747"></path></svg>