<?xml version="1.0" standalone="no"?><!DOCTYPE svg PUBLIC "-//W3C//DTD SVG 1.1//EN" "http://www.w3.org/Graphics/SVG/1.1/DTD/svg11.dtd"><svg t="1696214594917" class="icon" viewBox="0 0 1024 1024" version="1.1" xmlns="http://www.w3.org/2000/svg" p-id="4092" xmlns:xlink="http://www.w3.org/1999/xlink" width="200" height="200"><path d="M915.136 264.558h-86.23c8.067-4.393 15.252-8.837 21.096-13.245 32.68-24.654 45.224-75.14 29.182-117.434-8.446-22.266-23.924-40.33-44.76-52.236-22.619-12.925-50.516-18.184-82.898-15.625-68.363 5.396-127.917 24.652-172.228 55.684-25.911 18.147-46.975 40.42-62.605 66.2-0.728 1.2-1.429 2.42-2.133 3.635-0.704-1.215-1.405-2.435-2.132-3.634-15.63-25.78-36.693-48.054-62.605-66.201-44.31-31.032-103.866-50.288-172.228-55.684-32.387-2.558-60.28 2.7-82.898 15.625-20.836 11.908-36.315 29.971-44.76 52.237-16.044 42.294-3.497 92.78 29.183 117.433 5.9 4.451 13.157 8.891 21.308 13.245h-93.49c-16.497 0-29.87 13.374-29.87 29.87v195.86c0 16.497 13.373 29.87 29.87 29.87h38.716v362.29c0 40.532 30.973 73.508 69.044 73.508h592.678c38.07 0 69.044-32.976 69.044-73.509v-362.29h38.718c16.496 0 29.87-13.373 29.87-29.87v-195.86c-0.002-16.496-13.375-29.869-29.872-29.869z m-159.26-143.454c37.16-2.932 62.61 8.563 71.642 32.374 8.04 21.197 0.91 44.89-10.795 53.721-26.554 20.032-103.113 46.172-139.251 57.36H544.459c27.47-111.77 142.332-138 211.416-143.455zM212.396 207.2c-11.704-8.83-18.836-32.524-10.794-53.721 9.031-23.81 34.476-35.303 71.642-32.374 69.085 5.454 183.947 31.685 211.417 143.454H359.41l0.037-0.135c-43.374-11.955-121.65-38.063-147.05-57.224z m-80.071 112.618h350.8V464.9h-350.8V319.817z m65.909 562.63v-362.29h284.89v383.218H214.698c-8.924 0-16.463-9.585-16.463-20.929z m625.603 0c0 11.343-7.538 20.928-16.463 20.928H538.384V520.158h285.454v362.288z m65.91-417.548H538.383V319.817h146.699l0.05 0.167 0.559-0.167h204.055v145.082z" fill="#3EADFF" p-id="4093"></path></svg>