<?xml version="1.0" standalone="no"?><!DOCTYPE svg PUBLIC "-//W3C//DTD SVG 1.1//EN" "http://www.w3.org/Graphics/SVG/1.1/DTD/svg11.dtd"><svg t="1697088210460" class="icon" viewBox="0 0 1146 1024" version="1.1" xmlns="http://www.w3.org/2000/svg" p-id="10850" xmlns:xlink="http://www.w3.org/1999/xlink" width="223.828125" height="200"><path d="M0 0h1146.88v81.92H0zM0 450.56h245.76v81.92H0zM0 942.08h491.52v81.92H0z" fill="#1262B3" p-id="10851"></path><path d="M716.8 880.64a368.64 368.64 0 1 1 260.672-107.968A366.272 366.272 0 0 1 716.8 880.64z m0-655.36c-158.0928 0-286.72 128.6272-286.72 286.72s128.6272 286.72 286.72 286.72 286.72-128.6272 286.72-286.72-128.6272-286.72-286.72-286.72z" fill="#FF584D" p-id="10852"></path><path d="M851.67616 786.72256l57.9264-57.9264L1134.2848 953.4784l-57.92512 57.92512z" fill="#FF584D" p-id="10853"></path></svg>