<?xml version="1.0" standalone="no"?><!DOCTYPE svg PUBLIC "-//W3C//DTD SVG 1.1//EN" "http://www.w3.org/Graphics/SVG/1.1/DTD/svg11.dtd"><svg t="1687314554270" class="icon" viewBox="0 0 1024 1024" version="1.1" xmlns="http://www.w3.org/2000/svg" p-id="9149" xmlns:xlink="http://www.w3.org/1999/xlink" width="200" height="200"><path d="M581.2 191.048V69.168C581.2 30.944 550.128 0 511.968 0a69.176 69.176 0 0 0-69.168 69.168v121.88h138.4z" fill="#E5226B" p-id="9150"></path><path d="M511.968 191.048h69.24V69.168C581.2 30.944 550.128 0 511.968 0" fill="#CB1B5B" p-id="9151"></path><path d="M910.2 850.056s-32.872-54.68-45.696-93.224c-12.816-38.496-46.096-292.928-46.096-292.928-22.552-166.272-137.288-306.416-306.376-306.416-169.224 0-286.192 144.08-306.384 306.416 0 0-39.736 258.768-47.928 292.928-8.192 34.216-43.928 93.224-43.928 93.224h796.408z" fill="#F4A832" p-id="9152"></path><path d="M511.968 850.056h398.24s-32.872-54.68-45.696-93.224c-12.816-38.496-46.096-292.928-46.096-292.928-22.552-166.272-137.288-306.416-306.376-306.416h-0.072v692.568z" fill="#F39D00" p-id="9153"></path><path d="M658.376 888.216C658.376 963.216 592.872 1024 512 1024s-146.376-60.784-146.376-135.784" fill="#0092D2" p-id="9154"></path><path d="M733.968 850.056s-18.328-54.68-25.48-93.224c-7.144-38.496-25.696-292.928-25.696-292.928-12.552-166.272-76.512-306.416-170.76-306.416-94.344 0-159.552 144.08-170.8 306.416 0 0-22.16 258.768-26.72 292.928-4.56 34.216-24.488 93.224-24.488 93.224h443.944z" fill="#F5B617" p-id="9155"></path><path d="M511.968 157.48v692.576h222s-18.328-54.68-25.48-93.224c-7.144-38.496-25.696-292.928-25.696-292.928-12.552-166.272-76.512-306.416-170.76-306.416l-0.064-0.008z" fill="#F4A832" p-id="9156"></path><path d="M511.968 888.216V1024H512c80.872 0 146.376-60.784 146.376-135.784H511.968z" fill="#0085BF" p-id="9157"></path></svg>