<?xml version="1.0" standalone="no"?><!DOCTYPE svg PUBLIC "-//W3C//DTD SVG 1.1//EN" "http://www.w3.org/Graphics/SVG/1.1/DTD/svg11.dtd"><svg t="1680571260902" class="icon" viewBox="0 0 1024 1024" version="1.1" xmlns="http://www.w3.org/2000/svg" p-id="14233" xmlns:xlink="http://www.w3.org/1999/xlink" width="200" height="200"><path d="M382.818462 47.261538c-7.876923 0-15.753846 1.575385-22.055385 4.726154h-1.575385l-119.72923 69.316923-1.575385 1.575385c-20.48 15.753846-28.356923 45.686154-18.904615 69.316923 0 0 11.027692 25.206154 11.027692 48.836923 0 70.892308-53.563077 127.606154-121.304616 127.606154h-3.150769c-18.904615 0-34.658462 17.329231-39.384615 45.686154 0 1.575385-9.452308 55.138462-9.452308 96.098461s9.452308 94.523077 9.452308 96.098462c4.726154 28.356923 20.48 45.686154 39.384615 45.686154H110.276923c66.166154 0 121.304615 56.713846 121.304615 127.606154 0 23.630769-11.027692 48.836923-11.027692 48.836923-11.027692 25.206154-3.150769 55.138462 18.904616 69.316923l1.575384 1.575384 113.427692 67.741539h1.575385c6.301538 3.150769 14.178462 4.726154 22.055385 4.726154 17.329231 0 33.083077-7.876923 44.110769-18.904616 12.603077-15.753846 59.864615-59.864615 97.673846-59.864615 37.809231 0 83.495385 44.110769 97.673846 59.864615 11.027692 12.603077 26.781538 20.48 44.110769 20.48 7.876923 0 15.753846-1.575385 22.055385-4.726154h1.575385l118.153846-69.316923 1.575384-1.575384c20.48-15.753846 28.356923-45.686154 18.904616-69.316923 0 0-11.027692-25.206154-11.027692-48.836923 0-70.892308 53.563077-127.606154 121.304615-127.606154h4.726154c18.904615 0 34.658462-17.329231 39.384615-45.686154 0-1.575385 9.452308-55.138462 9.452308-96.098462s-9.452308-94.523077-9.452308-96.098461c-4.726154-28.356923-20.48-45.686154-39.384615-45.686154h-4.726154c-66.166154 0-121.304615-56.713846-121.304615-127.606154 0-23.630769 11.027692-48.836923 11.027692-48.836923 11.027692-25.206154 3.150769-55.138462-18.904616-69.316923l-1.575384-1.575385-116.578462-67.741538h-1.575384c-7.876923-3.150769-15.753846-4.726154-23.63077-4.726154-15.753846 0-33.083077 6.301538-44.110769 18.904615-14.178462 15.753846-58.289231 55.138462-94.523077 55.138462S441.107692 81.92 426.929231 66.166154c-11.027692-11.027692-26.781538-18.904615-44.110769-18.904616m0 48.836924c4.726154 0 7.876923 1.575385 9.452307 3.150769 6.301538 7.876923 66.166154 72.467692 129.181539 72.467692 61.44 0 121.304615-63.015385 129.181538-70.892308 1.575385-1.575385 4.726154-3.150769 9.452308-3.150769h3.150769l111.852308 66.166154c1.575385 1.575385 3.150769 6.301538 1.575384 9.452308-1.575385 3.150769-14.178462 36.233846-14.178461 67.741538 0 96.098462 74.043077 174.867692 163.84 176.443077 0 1.575385 1.575385 3.150769 1.575384 6.301539 0 0 9.452308 50.412308 9.452308 88.221538 0 36.233846-9.452308 86.646154-9.452308 86.646154 0 3.150769-1.575385 4.726154-1.575384 6.301538-91.372308 1.575385-163.84 80.344615-163.84 176.443077 0 33.083077 12.603077 64.590769 14.178461 69.316923 1.575385 3.150769 0 7.876923-1.575384 9.452308L661.661538 926.326154h-3.150769c-4.726154 0-7.876923-1.575385-9.452307-3.150769-6.301538-7.876923-67.741538-77.193846-132.332308-77.193847-64.590769 0-129.181538 72.467692-130.756923 75.618462-1.575385 1.575385-4.726154 3.150769-9.452308 3.150769h-3.150769l-108.701539-64.590769c-1.575385-1.575385-3.150769-6.301538-1.575384-11.027692 3.150769-6.301538 14.178462-36.233846 14.178461-67.741539 0-96.098462-74.043077-174.867692-163.84-176.443077 0-1.575385-1.575385-3.150769-1.575384-6.301538 0 0-9.452308-50.412308-9.452308-86.646154 0-37.809231 9.452308-86.646154 9.452308-86.646154 0-3.150769 1.575385-4.726154 1.575384-6.301538 91.372308-1.575385 163.84-80.344615 163.84-176.443077 0-33.083077-12.603077-64.590769-14.178461-69.316923-1.575385-3.150769 0-7.876923 1.575384-9.452308l115.003077-67.741538h3.15077" fill="#FF0000" p-id="14234"></path><path d="M518.301538 379.667692c-77.193846 0-138.633846 63.015385-138.633846 138.633846 0 77.193846 63.015385 138.633846 138.633846 138.633847s138.633846-63.015385 138.633847-138.633847c0-75.618462-61.44-138.633846-138.633847-138.633846m0 47.261539c51.987692 0 92.947692 40.96 92.947693 92.947692 0 51.987692-40.96 92.947692-92.947693 92.947692S425.353846 570.289231 425.353846 519.876923c0-51.987692 42.535385-92.947692 92.947692-92.947692" fill="#FF0000" p-id="14235"></path></svg>