<?xml version="1.0" standalone="no"?><!DOCTYPE svg PUBLIC "-//W3C//DTD SVG 1.1//EN" "http://www.w3.org/Graphics/SVG/1.1/DTD/svg11.dtd"><svg t="1680749201586" class="icon" viewBox="0 0 1024 1024" version="1.1" xmlns="http://www.w3.org/2000/svg" p-id="5557" xmlns:xlink="http://www.w3.org/1999/xlink" width="200" height="200"><path d="M682.666667 341.333333a128 128 0 1 0 0-256 128 128 0 0 0 0 256z m0 42.666667a170.666667 170.666667 0 1 1 0-341.333333 170.666667 170.666667 0 0 1 0 341.333333zM213.333333 725.333333a128 128 0 1 0 0-256 128 128 0 0 0 0 256z m0 42.666667a170.666667 170.666667 0 1 1 0-341.333333 170.666667 170.666667 0 0 1 0 341.333333zM810.666667 938.666667a128 128 0 1 0 0-256 128 128 0 0 0 0 256z m0 42.666666a170.666667 170.666667 0 1 1 0-341.333333 170.666667 170.666667 0 0 1 0 341.333333z" fill="#595959" p-id="5558"></path><path d="M303.658667 504.32l261.504-219.392 27.434666 32.725333-261.504 219.392zM355.925333 640l320.768 116.736-14.592 40.106667L341.333333 680.106667z" fill="#595959" p-id="5559"></path></svg>