<?xml version="1.0" standalone="no"?><!DOCTYPE svg PUBLIC "-//W3C//DTD SVG 1.1//EN" "http://www.w3.org/Graphics/SVG/1.1/DTD/svg11.dtd"><svg t="1674873585868" class="icon" viewBox="0 0 1030 1024" version="1.1" xmlns="http://www.w3.org/2000/svg" p-id="10721" xmlns:xlink="http://www.w3.org/1999/xlink" width="201.171875" height="200"><path d="M41.343881 1018.925366c-13.835674 0-25.587992-5.34924-33.092533-15.060761-16.645571-21.616848-6.982689-51.092894 18.844444-129.863216 7.497448-22.864227 17.763247-54.181449 25.614338-82.752613 12.087722-43.991648 11.06327-55.142063 10.579923-57.306483C30.431593 665.90389 13.769809 592.815173 13.769809 516.703764c0-275.786311 224.368147-500.153445 500.149391-500.153445s500.149391 224.368147 500.149391 500.153445c0 275.782258-224.368147 500.144325-500.149391 500.144325-85.204812 0-169.298029-21.800256-243.303788-63.062059-0.645476-0.092211-1.844216-0.210768-3.722885-0.210768-27.318718 0-86.38734 21.66346-129.521732 37.480147C87.445231 1009.375974 60.533862 1018.925366 41.343881 1018.925366L41.343881 1018.925366zM266.893542 886.810585c13.982604 0 25.462342 2.621422 35.098878 8.014234 64.36517 36.15069 137.644389 55.260619 211.926781 55.260619 238.962787 0 433.376607-194.418887 433.376607-433.387754 0-238.96684-194.412807-433.385727-433.381674-433.385727-238.962787 0-433.381674 194.418887-433.381674 433.385727 0 66.166827 14.514589 129.657515 43.129325 188.717017 16.114599 33.258716-1.768218 93.733805-33.134079 189.387825l-0.190501 0.585691c-4.872987 14.86114-10.476566 31.973844-15.039481 47.051831 12.364355-4.258923 26.168616-9.321398 38.982879-14.026176C167.441653 908.908753 227.688749 886.810585 266.893542 886.810585L266.893542 886.810585zM505.721559 831.817478c-173.328958 0-314.342588-141.01971-314.342588-314.348668 0-173.334025 141.01363-314.346642 314.342588-314.346642 173.340105 0 314.357788 141.012617 314.357788 314.346642C820.08036 690.797768 679.061663 831.817478 505.721559 831.817478L505.721559 831.817478zM505.721559 269.889886c-136.51658 0-247.574871 111.063357-247.574871 247.578924s111.058291 247.583991 247.574871 247.583991c136.526713 0 247.594124-111.069437 247.594124-247.583991S642.248272 269.889886 505.721559 269.889886L505.721559 269.889886zM505.731692 654.222504c-75.415267 0-136.774973-61.348559-136.774973-136.753694 0-75.411214 61.359706-136.759773 136.774973-136.759773 75.407161 0 136.753694 61.348559 136.753694 136.759773C642.485385 592.874958 581.138853 654.222504 505.731692 654.222504L505.731692 654.222504zM505.731692 447.478781c-38.603902 0-70.007255 31.397273-70.007255 69.990029 0 38.592756 31.403353 69.997122 70.007255 69.997122 38.593769 0 69.992056-31.404366 69.992056-69.997122C575.723748 478.876054 544.325461 447.478781 505.731692 447.478781L505.731692 447.478781zM505.731692 447.478781" p-id="10722"></path></svg>