<svg t="1662115241033" class="icon" viewBox="0 0 1024 1024" version="1.1" xmlns="http://www.w3.org/2000/svg" p-id="4358" width="32" height="32"><path d="M186.4 186.4C6.4 366.4 6.4 657.6 186.4 836.8c180 180 471.2 180 650.4 0s180-471.2 0-650.4C657.6 7.2 366.4 7.2 186.4 186.4z m594.4 594.4c-148 148-388.8 148-537.6 0s-148-388.8 0-537.6 388.8-148 537.6 0 148 388.8 0 537.6z" fill="#eb855f" p-id="4359"></path><path d="M512 976c-119.2 0-237.6-45.6-328-136C3.2 659.2 3.2 364.8 184 184S659.2 3.2 840 184s180.8 475.2 0 656c-90.4 90.4-208.8 136-328 136zM512 56c-116.8 0-233.6 44.8-322.4 133.6-177.6 177.6-177.6 467.2 0 644.8 177.6 177.6 467.2 177.6 644.8 0s177.6-467.2 0-644.8C745.6 100.8 628.8 56 512 56z m0 840c-98.4 0-196.8-37.6-271.2-112C168 711.2 128 614.4 128 512s40-199.2 112.8-271.2C312.8 168 409.6 128 512 128c102.4 0 199.2 40 271.2 112.8 149.6 149.6 149.6 393.6 0 543.2-74.4 74.4-172.8 112-271.2 112z m0-760c-100.8 0-195.2 39.2-265.6 110.4C175.2 316.8 136 411.2 136 512c0 100.8 39.2 195.2 110.4 265.6 146.4 146.4 384.8 146.4 532 0 146.4-146.4 146.4-384.8 0-532C707.2 175.2 612.8 136 512 136z" fill="#eb855f" p-id="4360"></path><path d="M243.2 243.2C95.2 392 95.2 632 243.2 780.8s388.8 148 537.6 0 148-388.8 0-537.6-388.8-148-537.6 0z m484 257.6c6.4 6.4 6.4 16 0 22.4L523.2 727.2c-6.4 6.4-16 6.4-22.4 0L296.8 523.2c-6.4-6.4-6.4-16 0-22.4l204-204c6.4-6.4 16-6.4 22.4 0l204 204z" fill="#eb855f" p-id="4361"></path><path d="M512 896c-98.4 0-196.8-37.6-271.2-112C168 711.2 128 614.4 128 512s40-199.2 112.8-271.2l3.2 3.2-3.2-3.2C312.8 168 409.6 128 512 128s199.2 40 271.2 112.8c149.6 149.6 149.6 393.6 0 543.2-74.4 74.4-172.8 112-271.2 112z m0-760c-100.8 0-195.2 39.2-265.6 110.4C175.2 316.8 136 411.2 136 512c0 100.8 39.2 195.2 110.4 265.6 146.4 146.4 384.8 146.4 532 0 146.4-146.4 146.4-384.8 0-532C707.2 175.2 612.8 136 512 136z m0 600c-4.8 0-10.4-1.6-13.6-5.6L293.6 525.6c-8-8-8-20 0-28l204-204c8-8 20-8 28 0l204 204c8 8 8 20 0 28L525.6 730.4c-3.2 3.2-8.8 5.6-13.6 5.6z m0-440c-3.2 0-5.6 0.8-8 3.2L299.2 504c-4.8 4.8-4.8 12 0 16L504 724.8c4.8 4.8 12 4.8 16 0L724.8 520c4.8-4.8 4.8-12 0-16L520 299.2c-2.4-1.6-4.8-3.2-8-3.2z" fill="#eb855f" p-id="4362"></path><path d="M500.8 296.8L296.8 500.8c-6.4 6.4-6.4 16 0 22.4l204 204c6.4 6.4 16 6.4 22.4 0l204-204c6.4-6.4 6.4-16 0-22.4L523.2 296.8c-6.4-6.4-16-6.4-22.4 0z m183.2 206.4c4.8 4.8 4.8 12.8 0 17.6L520.8 684c-4.8 4.8-12.8 4.8-17.6 0L340 520.8c-4.8-4.8-4.8-12.8 0-17.6l163.2-163.2c4.8-4.8 12.8-4.8 17.6 0l163.2 163.2z" fill="#eb855f" p-id="4363"></path><path d="M512 736c-4.8 0-10.4-1.6-13.6-5.6L293.6 525.6c-8-8-8-20 0-28l204-204c8-8 20-8 28 0l204 204c8 8 8 20 0 28L525.6 730.4c-3.2 3.2-8.8 5.6-13.6 5.6z m0-440c-3.2 0-5.6 0.8-8 3.2L299.2 504c-4.8 4.8-4.8 12 0 16L504 724.8c4.8 4.8 12 4.8 16 0L724.8 520c4.8-4.8 4.8-12 0-16L520 299.2c-2.4-1.6-4.8-3.2-8-3.2z m0 396c-4 0-8.8-1.6-12-4.8L336.8 524c-6.4-6.4-6.4-16.8 0-23.2l163.2-163.2c6.4-6.4 16.8-6.4 23.2 0l163.2 163.2c6.4 6.4 6.4 16.8 0 23.2L524 687.2c-3.2 3.2-8 4.8-12 4.8z m0-352c-2.4 0-4 0.8-5.6 2.4L342.4 506.4c-1.6 1.6-2.4 4-2.4 5.6s0.8 4 2.4 5.6l163.2 163.2c3.2 3.2 8.8 3.2 12 0l163.2-163.2c3.2-3.2 3.2-8.8 0-12L517.6 342.4c-1.6-1.6-3.2-2.4-5.6-2.4z" fill="#eb855f" p-id="4364"></path><path d="M243.2 243.2c-76.8 76.8-114.4 179.2-111.2 280 2.4-93.6 40-186.4 111.2-257.6C392 117.6 632 117.6 780.8 265.6c71.2 71.2 108 164 111.2 257.6 3.2-100.8-33.6-203.2-111.2-280C632 95.2 392 95.2 243.2 243.2z" fill="#eb855f" p-id="4365"></path><path d="M512 896c-98.4 0-196.8-37.6-271.2-112C168 711.2 128 614.4 128 512s40-199.2 112.8-271.2C312.8 168 409.6 128 512 128s199.2 40 271.2 112.8c149.6 149.6 149.6 393.6 0 543.2-74.4 74.4-172.8 112-271.2 112z m0-760c-100.8 0-195.2 39.2-265.6 110.4C175.2 316.8 136 411.2 136 512c0 100.8 39.2 195.2 110.4 265.6 146.4 146.4 384.8 146.4 532 0 146.4-146.4 146.4-384.8 0-532C707.2 175.2 612.8 136 512 136z" fill="#eb855f" p-id="4366"></path></svg>