<svg t="1662116066490" class="icon" viewBox="0 0 1024 1024" version="1.1" xmlns="http://www.w3.org/2000/svg" p-id="5475" width="32" height="32"><path d="M714.5 501.2c0 19.5-16 35.4-35.4 35.4H345.7c-19.4 0-35.4-16-35.4-35.4 0-19.5 16-35.4 35.4-35.4h333.4c19.5 0 35.4 15.8 35.4 35.4z m244.7-133.4V261.7c0-29.7-11.7-58.2-32.7-79.2-21-21-49.5-32.9-79.2-32.7H176.8c-29.7 0-58.2 11.8-79.1 32.7-21 21-32.7 49.5-32.7 79.2v106.1c82.3 0 149 65.1 149 145.3S147.3 658.4 65 658.4v106c0 29.7 11.7 58.2 32.7 79.2 21 21 49.5 32.9 79.2 32.7h670.6c29.7 0 58.2-11.8 79.1-32.7 21-21 32.7-49.5 32.7-79.2v-106c-82.3 0-149-65.1-149-145.3-0.1-80.4 66.7-145.3 148.9-145.3z" p-id="5476" fill="#e78468"></path></svg>