<svg xmlns="http://www.w3.org/2000/svg" viewBox="0 0 32 32" width="18" height="18" style="border-color: rgba(187,187,187,1);border-width: 0px;border-style: solid" filter="none">
    
    <g>
    <path d="M24.696 26.606c-0.99 1.168-2.434 1.838-3.964 1.838h-8.421c-1.531 0-2.976-0.67-3.964-1.838-0.99-1.168-1.413-2.704-1.163-4.213l0.74-4.443c0.704-4.22 4.32-7.284 8.597-7.284 4.279 0 7.895 3.063 8.597 7.284l0.74 4.443c0.252 1.509-0.171 3.045-1.161 4.213zM15.444 8.889c-1.767 0-3.303-1.291-3.655-3.068-0.034-0.176 0.041-0.297 0.087-0.356 0.050-0.060 0.137-0.132 0.268-0.132h8.75c0.133 0 0.219 0.071 0.27 0.132 0.046 0.059 0.121 0.18 0.087 0.356-0.352 1.778-1.888 3.068-3.655 3.068h-2.153zM27.611 22.1l-0.74-4.443c-0.606-3.636-3.052-6.549-6.279-7.913 1.205-0.802 2.103-2.060 2.404-3.58 0.263-1.349-0.75-2.608-2.101-2.608h-8.75c-1.349 0-2.364 1.259-2.1 2.608 0.3 1.52 1.198 2.779 2.402 3.58-3.223 1.364-5.671 4.277-6.277 7.913l-0.74 4.443c-0.708 4.251 2.569 8.123 6.88 8.123h8.421c4.309 0 7.588-3.872 6.88-8.123zM18.742 20.445c0.491 0 0.889-0.398 0.889-0.889s-0.398-0.889-0.889-0.889h-0.683l0.942-0.942c0.348-0.348 0.348-0.91 0-1.257-0.347-0.348-0.908-0.348-1.257 0l-1.225 1.225-1.225-1.225c-0.348-0.348-0.91-0.348-1.257 0-0.348 0.347-0.348 0.908 0 1.257l0.942 0.942h-0.683c-0.491 0-0.889 0.398-0.889 0.889s0.398 0.889 0.889 0.889h1.333v0.889h-1.333c-0.491 0-0.889 0.398-0.889 0.889s0.398 0.889 0.889 0.889h1.333v0.889c0 0.491 0.398 0.889 0.889 0.889s0.889-0.398 0.889-0.889v-0.889h1.333c0.491 0 0.889-0.398 0.889-0.889s-0.398-0.889-0.889-0.889h-1.333v-0.889h1.333z" fill="rgba(255,190.995,107.1,1)"></path>
    </g>
  </svg>