<svg xmlns="http://www.w3.org/2000/svg" viewBox="0 0 32 32" width="18" height="18" style="border-color: rgba(187,187,187,1);border-width: 0px;border-style: solid" filter="none">
    
    <g>
    <path d="M7.268 6.52c0.395 1.366 0.236 2.863-0.505 4.147-0.742 1.285-1.961 2.171-3.342 2.512-0.205 0.918-0.309 1.862-0.309 2.821s0.105 1.904 0.309 2.821c1.381 0.341 2.6 1.227 3.342 2.512 0.741 1.284 0.9 2.781 0.505 4.147 1.399 1.289 3.066 2.257 4.885 2.825 0.986-1.026 2.363-1.639 3.847-1.639s2.861 0.612 3.847 1.639c1.82-0.568 3.487-1.536 4.885-2.825-0.395-1.366-0.236-2.863 0.505-4.147 0.742-1.285 1.961-2.171 3.342-2.512 0.205-0.918 0.309-1.862 0.309-2.821s-0.105-1.904-0.309-2.821c-1.381-0.341-2.6-1.227-3.342-2.512-0.741-1.284-0.9-2.781-0.505-4.147-1.399-1.289-3.066-2.257-4.885-2.825-0.986 1.026-2.363 1.639-3.847 1.639s-2.861-0.612-3.847-1.639c-1.82 0.568-3.487 1.536-4.885 2.825zM19.14 1.67c3.019 0.658 5.69 2.246 7.699 4.449-0.671 1.078-0.741 2.482-0.061 3.659 0.68 1.178 1.933 1.82 3.204 1.776 0.446 1.402 0.686 2.896 0.686 4.446s-0.24 3.044-0.686 4.446c-1.271-0.043-2.523 0.598-3.204 1.776-0.679 1.177-0.61 2.581 0.061 3.659-2.009 2.202-4.68 3.79-7.699 4.449-0.598-1.122-1.78-1.885-3.14-1.885s-2.542 0.764-3.14 1.885c-3.019-0.658-5.69-2.246-7.699-4.449 0.671-1.078 0.741-2.482 0.061-3.659-0.68-1.178-1.933-1.82-3.204-1.776-0.445-1.402-0.686-2.896-0.686-4.446s0.24-3.044 0.686-4.446c1.271 0.043 2.523-0.598 3.204-1.776 0.679-1.177 0.61-2.581-0.061-3.659 2.009-2.202 4.68-3.79 7.699-4.449 0.598 1.122 1.78 1.885 3.14 1.885s2.542-0.764 3.14-1.885zM16 10.667c-2.945 0-5.333 2.388-5.333 5.333s2.388 5.333 5.333 5.333 5.333-2.388 5.333-5.333-2.388-5.333-5.333-5.333zM16 12.444c1.964 0 3.556 1.592 3.556 3.556s-1.592 3.556-3.556 3.556-3.556-1.592-3.556-3.556 1.592-3.556 3.556-3.556z" fill="rgba(154.01999999999998,154.01999999999998,154.01999999999998,1)"></path>
    </g>
  </svg>