<?xml version="1.0" encoding="UTF-8"?><svg version="1.1" width="32px" height="32px" viewBox="0 0 32.0 32.0" xmlns="http://www.w3.org/2000/svg" xmlns:xlink="http://www.w3.org/1999/xlink"><defs><clipPath id="i0"><path d="M474,0 L474,689 L0,689 L0,0 L474,0 Z"></path></clipPath><clipPath id="i1"><path d="M16,0 C24.836556,0 32,7.163444 32,16 C32,24.836556 24.836556,32 16,32 C7.163444,32 0,24.836556 0,16 C0,7.163444 7.163444,0 16,0 Z"></path></clipPath><clipPath id="i2"><path d="M9.07476432,0.12320154 C9.2083255,-0.0410671801 9.45836502,-0.0410671801 9.59190235,0.12320154 L16.5865908,8.72656796 L16.6092327,8.75553596 C17.8963875,10.362264 18.6666667,12.404112 18.6666667,14.626776 C18.6666667,19.803384 14.488096,24 9.33334526,24 C4.17859454,24 0,19.803384 0,14.626776 C0,12.404088 0.770279177,10.36224 2.05744825,8.75553596 L2.08020709,8.72714396 Z M4.37955665,9.21187196 L3.75393296,9.98143196 L3.57326078,10.2166559 C2.69503001,11.4101912 2.17583767,12.8865765 2.17583767,14.484504 C2.17583767,18.45444 5.38035889,21.672552 9.33313053,21.672552 C10.4600978,21.672552 11.5263922,21.410928 12.47492,20.9448 L12.5052206,20.929896 L12.5091811,20.8962 C12.572884,20.351424 12.5466632,19.728384 12.3995741,19.09512 C12.0469898,17.57772 10.8233947,16.194168 8.72179823,14.990976 C6.30407358,13.61124 4.85797195,11.829744 4.45316083,9.69321596 C4.4316164,9.57959996 4.4134599,9.46648796 4.39847662,9.35395196 L4.37955665,9.21187196 Z M9.68764744,3.55432795 C9.5046271,3.32923195 9.162135,3.32923195 8.97911466,3.55432795 L7.93555756,4.83794395 C7.61618457,5.23497595 7.24050497,5.89401595 6.98796029,6.68061596 C6.73534403,7.46747996 6.60462203,8.38612796 6.78043703,9.30071996 C7.05268903,10.715112 8.08963726,11.959968 9.90120695,12.993792 C12.5838828,14.528952 14.213816,16.424928 14.7140859,18.636 C14.7405691,18.753072 14.7634019,18.869184 14.782799,18.984216 L14.805608,19.119456 L14.8916903,19.01304 C15.8912996,17.777016 16.4904162,16.200936 16.4904162,14.484504 C16.4904162,12.793224 15.9087403,11.23824 14.9353756,10.010544 Z"></path></clipPath></defs><g transform="translate(-368.0 -618.0)"><g clip-path="url(#i0)"><g transform="translate(368.0 618.0)"><g clip-path="url(#i1)"><polygon points="0,0 32,0 32,32 0,32 0,0" stroke="none" fill="#4CA3FF"></polygon></g><g transform="translate(6.666666666666666 4.0)"><g clip-path="url(#i2)"><polygon points="0,0 18.6666667,0 18.6666667,24 0,24 0,0" stroke="none" fill="#FFFFFF"></polygon></g></g></g></g></g></svg>